<svg width="32" height="40" viewBox="0 0 32 40" fill="none" xmlns="http://www.w3.org/2000/svg">
<rect width="32" height="40" fill="#F5F5F5"/>
<rect width="1600" height="3630" transform="translate(-1290 -45)" fill="#191919"/>
<path d="M16.875 3.06989C8.59152 3.06989 1.875 11.1525 1.875 21.1207C1.875 31.089 8.59152 39.1716 16.875 39.1716C25.1585 39.1716 31.875 31.089 31.875 21.1207C31.875 11.1525 25.1585 3.06989 16.875 3.06989ZM24.0837 16.6765C24.0937 16.8659 24.0937 17.0633 24.0937 17.2567C24.0937 23.1716 20.3504 29.985 13.51 29.985C11.4007 29.985 9.44531 29.2476 7.79799 27.9784C8.09933 28.0187 8.38728 28.0349 8.69531 28.0349C10.4364 28.0349 12.0368 27.3257 13.3125 26.125C11.6786 26.0847 10.3058 24.7954 9.83705 23.0225C10.4096 23.1233 10.9252 23.1233 11.5145 22.9419C10.6732 22.7362 9.91699 22.1864 9.37438 21.3858C8.83178 20.5852 8.53623 19.5832 8.53795 18.5501V18.4937C9.03013 18.8281 9.60938 19.0336 10.2154 19.0618C9.70595 18.6532 9.28814 18.0997 8.99903 17.4502C8.70993 16.8008 8.55845 16.0756 8.55804 15.3388C8.55804 14.5048 8.73884 13.7433 9.06362 13.0825C9.99744 14.4658 11.1627 15.5973 12.4837 16.4032C13.8047 17.2091 15.2518 17.6715 16.731 17.7604C16.2054 14.7183 18.0938 12.2565 20.3638 12.2565C21.4353 12.2565 22.3996 12.7964 23.0792 13.6667C23.9196 13.4773 24.7232 13.0986 25.4397 12.5909C25.1618 13.6264 24.5792 14.5007 23.8058 15.0527C24.5558 14.956 25.279 14.7062 25.9487 14.3557C25.4431 15.2502 24.8103 16.0439 24.0837 16.6765Z" fill="#A7A7A7"/>
</svg>
